<?xml version="1.0" standalone="no"?>
<!DOCTYPE svg PUBLIC "-//W3C//DTD SVG 20010904//EN"
 "http://www.w3.org/TR/2001/REC-SVG-20010904/DTD/svg10.dtd">
<svg version="1.0" xmlns="http://www.w3.org/2000/svg"
 width="612.000000pt" height="612.000000pt" viewBox="0 0 612.000000 612.000000"
 preserveAspectRatio="xMidYMid meet">
<metadata>
Created by potrace 1.14, written by Peter Selinger 2001-2017
</metadata>
<g transform="translate(0.000000,612.000000) scale(0.100000,-0.100000)"
fill="#000000" stroke="none">
<path d="M2878 6115 c-2 -2 -43 -6 -93 -8 -49 -3 -101 -8 -115 -11 -14 -3 -41
-7 -60 -10 -100 -16 -206 -37 -296 -60 -115 -29 -314 -90 -341 -105 -10 -5
-45 -20 -78 -32 -79 -30 -309 -146 -412 -208 -267 -160 -579 -426 -753 -641
-25 -30 -47 -57 -50 -60 -69 -68 -254 -352 -347 -535 -110 -215 -224 -530
-257 -705 -2 -14 -12 -61 -21 -105 -38 -192 -50 -326 -50 -570 0 -229 14 -412
42 -535 1 -8 5 -31 8 -50 8 -59 72 -299 109 -407 118 -348 323 -708 565 -994
71 -83 268 -280 351 -351 126 -106 279 -215 445 -315 124 -75 412 -206 558
-254 158 -52 421 -114 562 -133 214 -29 628 -28 840 3 157 23 367 71 520 120
328 105 697 305 973 529 562 455 968 1130 1087 1809 8 48 17 99 20 113 35 197
41 668 11 840 -3 14 -7 47 -11 74 -43 341 -191 760 -386 1093 -50 85 -167 263
-180 273 -3 3 -23 27 -43 55 -212 279 -563 588 -866 764 -107 61 -327 168
-430 209 -163 63 -436 142 -550 158 -19 3 -48 8 -65 11 -16 4 -34 7 -40 8 -12
3 -117 16 -160 21 -41 5 -483 13 -487 9z"/>
</g>
</svg>
